<svg width="19" height="20" viewBox="0 0 19 20" fill="none" xmlns="http://www.w3.org/2000/svg">
<path d="M5.51896 6.94469C5.39145 7.16784 5.90149 7.79742 6.04494 8.00463C7.27224 9.77385 9.1371 11.6307 10.8824 12.8979C11.1056 13.0573 11.8627 13.6869 12.1017 13.4717C12.4365 13.1609 11.8069 12.2444 11.8069 11.7662C11.8069 11.1207 12.6516 10.2042 13.1457 9.84558C13.6159 9.51086 14.2615 9.55868 14.6759 9.94918C15.8474 11.296 17.4652 12.5074 18.5889 13.8622C19.0113 14.3722 19.1467 14.8504 18.812 15.464C18.5092 16.0139 16.8276 18.1019 16.3335 18.4287C15.0903 19.2655 13.4247 19.13 12.046 18.7634C7.18458 17.4724 1.53423 11.83 0.27505 6.96063C-0.0915451 5.5341 -0.227026 3.70112 0.745249 2.47382C1.072 2.05941 3.17594 0.369881 3.64613 0.146736C4.17212 -0.108287 4.61044 -0.0206223 5.04876 0.330034C6.45139 1.4617 7.71853 3.21498 9.12116 4.40243C9.3443 4.70527 9.47181 5.02405 9.38415 5.41455C9.26461 5.99632 8.02934 7.13596 7.41569 7.19971C6.61874 7.29535 6.18839 6.59403 5.50302 6.95266L5.51896 6.94469Z" fill="#1A1919"/>
</svg>
